<svg xmlns="http://www.w3.org/2000/svg" width="90" height="35" fill="none"><path fill="#000" d="M9.097 16.557c4.8-2.79 10.162-5.215 15.904-5.144 4.963.061 9.575 2.056 13.887 4.221 4.311 2.165 8.746 4.726 13.536 6.157 5.303 1.581 10.932 1.506 16.324.386 6.31-1.309 12.259-3.94 17.887-6.905.834-.438.09-1.661-.745-1.219-9.718 5.12-21.32 9.648-32.519 6.533-9.461-2.627-17.186-9.889-27.3-10.543-6.368-.414-12.406 2.208-17.719 5.295-.814.47-.07 1.694.745 1.219"/><path fill="#000" d="M7.123 10.631a19.5 19.5 0 0 1-3.892 6.435.88.88 0 0 0 .355 1.421 59 59 0 0 0 9.393 2.496c.43.08.871-.119.995-.594.108-.408-.129-.968-.565-1.047a59 59 0 0 1-9.392-2.496l.355 1.42c1.89-2.077 3.332-4.51 4.311-7.188.157-.43-.172-.934-.565-1.047-.457-.13-.834.164-.995.594z"/></svg>